<?xml version="1.0" encoding="utf-8"?>
<svg xmlns="http://www.w3.org/2000/svg" viewBox="688 22 224 198">
<path fill="#000000" d="M791,25.8h10.9l14.8,1.6l14.8,3.9l11.7,4.7l8.6,4.7l13.3,9.4l10.2,9.4l7.8,8.6l8.6,13.3l5.5,12.5l4.7,14.8
		l1.6,7l0.8,7v23.4l-1.6,10.9l-4.7,15.6l-8.6,18l-5.5,7l-8.6,10.2l-7,7.8l-10.9,7.8l-18,10.2l-11.7,3.9l-16.4,3.1l-11.7,1.6
		l-10.9-0.8l-20.3-3.1l-10.9-3.9l-14.8-7l-11.7-7.8l-9.4-8.6l-7.8-7.8l-7.8-10.9l-7-12.5l-5.5-14.8l-2.5-11v-5.5h0.8l3.9,16.4
		l5.5,14.1l7,12.5l7.8,10.2l8.6,9.4l11.7,9.4l12.5,7l11.7,5.5l11.7,3.1l15.6,2.3h18l21.9-3.9l10.2-3.9l13.3-7l8.6-5.5l7.8-6.3
		l5.5-6.3l9.4-10.9l6.3-10.9l5.5-11.7l4.7-14.8l1.6-7.8v-29.7l-3.9-16.4l-5.7-15l-6.3-11.7l-7-9.4l-7-7.8l-8.6-7l-8.6-6.3l-12.5-7
		l-11-4.7l-17.2-3.9l-7-0.8h-19.5L772.2,32l-16.4,5.5l-12.5,6.3l-8.6,5.5l-8.6,7l-7.8,7l-10.9,14.8l-6.3,10.2l-6.3,18.8l-3.1,15.6
		L691,129h-0.8v-9.4l3.1-17.2l3.1-9.4l6.3-12.5l7.8-11.7l7-8.6l7-7l10.2-7.8l10.2-6.3l13.3-6.3l15.6-4.7L791,25.8z"/>
<path fill="#000000" d="M783.3,34.4h28.9l20.3,5.5l10.9,4.7l11.7,7.8l7.8,6.3l7.8,7l7.8,10.2l7.8,12.5l5.5,14.8l3.9,14.8v28.1
		l-2.3,11.7l-4.7,14.1l-7,13.3l-5.5,7v-2.3l7-11.7l4.7-10.9l3.9-13.3l1.6-9.4l0.8-16.4l-3.1-18l-4.7-14.1l-6.3-12.5l-7-10.2
		l-8.6-9.4l-7-6.3l-11-7.7l-13.3-6.3L817.6,39l-7-1.6h-23.4L775.5,39l-13.3,4.7L748.1,50l-9.4,7l-8.6,7.8l-5.5,4.7l-7.8,10.9
		L709,94.6l-3.9,10.2l-3.9,19.5v14.8l2.3,16.4l3.9,13.3l6.3,12.5l7.8,11.7l9.4,10.2l7,6.3l11.7,7.8l11.7,5.5l11.7,3.9l12.5,2.3H809
		l13.3-2.3l11.7-3.9l16.4-8.6l7-4.7l1.6,0.8l-10.9,7.8l-14.8,7.8l-12.5,3.9l-13.3,2.3H784l-14.8-3.1l-14.8-5.5l-12.5-7l-9.4-7
		l-10.9-10.9l-7.8-10.2l-7-12.5l-3.9-8.6l-3.9-14.8l-1.6-14.1V125l1.6-11.7l4.7-16.4l6.3-12.5l7.8-12.5l7-7.8l8.6-7l6.3-5.5l8.6-5.5
		l16.4-7l13.3-3.9L783.3,34.4z"/>
<path fill="#000000" d="M798.4,121.9l7,1.6l4.7,5.5l0.8,4.7l-1.6,6.3l-3.1,3.9l-3.1,1.6h-7l-5.5-3.1l-2.3-4.7V129l2.3-3.9L798.4,121.9
		z M797.7,125l-5.5,2.3l-3.1,3.9v5.5l3.1,4.7l3.9,1.6h5.5l4.7-3.9l0.8-1.6v-7l-3.1-3.9l-4-1.6H797.7z"/>
<path fill="#000000" d="M773.4,114.9l7,1.6l7,3.9l3.1,0.8l3.1-1.6l-1.6,3.1l-6.3,7l-3.1-3.9l-7-7L773.4,114.9z"/>
<path fill="#000000" d="M813.3,132.9l7,1.6l10.2,5.5v0.8l-17.2,0.8l-2.3,0.8L813.3,132.9z"/>
<path fill="#000000" d="M841.4,140.7l7.8,0.8l22.7,4.7l2.3,0.8v1.6l-4.7,0.8l-15.6-3.1l-12.5-3.9V140.7z"/>
<path fill="#000000" d="M808.6,175.8h1.6l4.7,22.7l0.8,4.7v6.3l-2.3-2.3l-3.1-11.7l-1.6-11.7v-8H808.6z"/>
<path fill="#000000" d="M774.2,170.4l1.6,0.8l-6.3,10.9l-10.9,16.4H757l0.8-4.7l7-11.7l8.6-10.9L774.2,170.4z"/>
<path fill="#000000" d="M760.9,158.6h1.6v1.6l-13.3,10.2l-10.2,7l-3.9,0.8l4.7-5.5l12.5-9.4L760.9,158.6z"/>
<path fill="#000000" d="M751.6,143h4.7l-0.8,1.6l-21.9,6.3l-7,1.6h-3.1v-1.6l9.4-3.9l13.3-3.1L751.6,143z"/>
<path fill="#000000" d="M823.4,169.6l3.9,3.1l9.4,12.5l6.3,8.6l0.8,3.1l-3.1-1.6l-5.5-5.5l-8.6-12.5l-3.1-6.3v-1.4H823.4z"/>
<path fill="#000000" d="M839.8,67.2h2.3l-1.6,4.7L835,82.1l-9.4,12.5l-1.6,0.8l0.8-3.9l7.8-13.3L839.8,67.2z"/>
<path fill="#000000" d="M724.2,120.4l11.7,0.8l13.3,3.1l5.5,1.6v1.6h-6.3l-25-4.7l-1.6-1.6L724.2,120.4z"/>
<path fill="#000000" d="M812.5,57.1l1.6,2.3l-0.8,10.2l-3.1,14.1l-2.3,6.3H807v-7l3.9-21.9L812.5,57.1z"/>
<path fill="#000000" d="M871.1,117.2h4.7l-2.3,2.3l-10.9,3.1l-13.3,2.3H843l0.8-1.6l14.8-3.9L871.1,117.2z"/>
<path fill="#000000" d="M834.4,156.3l8.6,4.7l11.7,7.8l7.8,5.5v1.6l-4.7-0.8l-11.7-7.8l-11.7-9.4L834.4,156.3L834.4,156.3z"/>
<path fill="#000000" d="M731.3,93l5.5,0.8l11.7,6.3l11.7,7.8l-0.8,1.6l-14.8-7l-11.7-7L731.3,93z"/>
<path fill="#000000" d="M791.4,176.6h0.8v6.3l-4.7,23.4l-1.6,3.1h-0.8v-10.2l3.9-16.4L791.4,176.6z"/>
<path fill="#000000" d="M751.6,71.1l3.9,1.6l7.8,7.8l7.8,10.9l2.3,3.9l-0.8,1.6l-6.3-6.3l-7-8.6l-7.8-10.2L751.6,71.1L751.6,71.1z"/>
<path fill="#000000" d="M779.7,57.9l2.3,0.8l3.1,7.8L789,86v4.7l-1.6-0.8l-6.3-24.2L779.7,57.9z"/>
<path fill="#000000" d="M863.3,89.1v2.3l-6.3,5.5l-10.9,7l-7.8,3.9l-1.6-0.8l10.2-7.8l11.7-7.8L863.3,89.1z"/>
</svg>