<?xml version="1.0" encoding="utf-8"?>
<svg version="1.1" xmlns="http://www.w3.org/2000/svg" xmlns:xlink="http://www.w3.org/1999/xlink"
  viewBox="680 15 240 210" xml:space="preserve">
<defs>
    <filter id="to-black" color-interpolation-filters="sRGB">
      <feColorMatrix type="matrix" values="0 0 0 0 0  0 0 0 0 0  0 0 0 0 0  0 0 0 1 0"/>
    </filter>
  </defs>
  <g filter="url(#to-black)">
<!-- Generator: Adobe Illustrator 22.0.0, SVG Export Plug-In . SVG Version: 6.00 Build 0)  -->

<style type="text/css">
	.st0{fill:#FFFFFF;filter:url(#Adobe_OpacityMaskFilter);}
	.st1{mask:url(#ritaglio-bianco_1_);}
	.st2{fill:#035D2E;}
	.st3{fill:#005B2C;}
	.st4{fill:#FD9B06;}
	.st5{fill:#FFFFFF;filter:url(#Adobe_OpacityMaskFilter_1_);}
	.st6{mask:url(#ritaglio-bianco_2_);}
	.st7{fill:#DAE7E0;}
	.st8{fill:#15683D;}
	.st-mask-rosa{mask:url(#ritaglio-verde-rosa-azzurri);}
</style>
<defs>
	<filter id="Adobe_OpacityMaskFilter" filterUnits="userSpaceOnUse" x="311" y="42.2" width="998.4" height="463.4">
		<feColorMatrix  type="matrix" values="1 0 0 0 0  0 1 0 0 0  0 0 1 0 0  0 0 0 1 0"/>
	</filter>
	<g id="azzurri-ritagli">
		<polyline fill="#000000" stroke="none" points="796.1,167.2 798.1,169.1 800,169.9 801.9,167.2 799.1,164.8 	"/>
		<polyline fill="#000000" stroke="none" points="821.8,152.1 821.8,155.5 826.1,156 826.9,154.5 826.3,150.9 	"/>
		<polyline fill="#000000" stroke="none" points="829.2,121.9 827.8,126.7 830.5,128.1 832.3,125.4 832.3,122.9 	"/>
		<polyline fill="#000000" stroke="none" points="785.1,126.4 788.3,122.3 779.6,118.2 777.1,117.2 	"/>
		<polyline fill="#000000" stroke="none" points="796.9,118.8 800.3,118.8 798.6,108.1 	"/>
		<polyline fill="#000000" stroke="none" points="810.9,123.1 812.5,124.9 817.7,120.1 819.8,117.8 813,120.8 	"/>
		<polyline fill="#000000" stroke="none" points="814.7,135.1 813.9,140 826.9,140 820.1,136.3 	"/>
		<polyline fill="#000000" stroke="none" points="804.8,147.8 808.6,155.7 810.4,157.4 810,153.4 808.6,146.6 	"/>
		<polyline fill="#000000" stroke="none" points="790.8,147.8 793.2,148.9 791.3,154.1 788.3,158.6 788.7,154.1 790.1,147.8 	"/>
		<polyline fill="#000000" stroke="none" points="783.1,137.6 783.5,141.2 771.6,141.2 772.4,140.4 	"/>
	</g>
</defs>
<mask maskUnits="userSpaceOnUse" x="0" y="0" width="1600" height="529" id="ritaglio-verde-rosa-azzurri">
	<rect fill="#FFFFFF" width="1600" height="529"/>
	<use xlink:href="#azzurri-ritagli" href="#azzurri-ritagli"/>
</mask>
<mask maskUnits="userSpaceOnUse" x="311" y="42.2" width="998.4" height="463.4" id="ritaglio-bianco_1_">
	<rect class="st0" width="1600" height="529"/>
	<g>
		<path d="M440.6,308.6l3.1,1.6l4.7,9.4l6.3,19.5l6.3,25l3.1,18v30.5H418v-25.8l3.1-19.5l4.7-20.3l7-22.7l4.7-11.7L440.6,308.6z"/>
		<path d="M1066.4,308.6l3.1,1.6l4.7,9.4l6.3,19.5l6.3,25l3.1,18v30.5h-46.1v-25l3.1-20.3l4.7-19.5l7-23.4l4.7-11.7L1066.4,308.6z"
			/>
		<path d="M813.3,45.4l4.7,0.8l6.3,10.2l1.6,3.1V65l-7,20.3l-3.9,7.8l-0.8,0.8h-7.8h-1.6l2.3,0.8h8.6l5.5-10.9L829,65l3.9-3.9
			l8.6-3.9l5.5-0.8l3.1,3.1l2.3,15.6l-3.9,6.3l-8.6,10.2l-5.5,6.3l-3.1,3.1l-3.9,0.8l-6.3-3.1v0.8l5.5,3.1l3.9,0.8l9.4-8.6
			l11.7-10.9l4.7-3.1h12.5l4.7,1.6L875,86l-4.7,15.6L868,104l-20.3,9.4l-6.3,2.3h-3.9l-6.3-7l-12.5-1.6l-2.3-7l-3.1-0.8l-4.7,2.3
			l-3.1-1.6l-5.5-5.5l-3.1-1.6l0.8-2.3h2.3V74.3l0.8-17.2l4.7-6.3l6.3-4.7L813.3,45.4z"/>
		<path d="M797.7,97.7l3.9,1.6l7,7.8l0.8,2.3l-3.1,9.4l-2.3,0.8l-2.3-1.6l-1.6-10.2l-1.6-4.7l-2.3,6.3l-1.6,10.9h8.6l3.9,0.8
			l1.6-4.7l3.9-6.3h9.4l6.3,0.8v6.3l-2.3,9.4l-10.2,3.9l-2.3-0.8l0.8-3.9l7-7l3.1-4.7l-14.1,6.3l-1.6,3.1l3.9,7l5.5,0.8l7-1.6
			l3.9,0.8l6.3,9.4l-0.8,3.1l-10.9,6.3l-4.7-0.8l-7-4.7l1.6-3.1l16.4-0.8l-11.7-5.5l-4.7-1.6l-1.6,7.8l-0.8,2.3l5.5,6.3l3.1,3.1
			l-0.8,7l-4.7,8.6l-12.5-6.3l-1.6-5.5v-7l3.1-0.8l7,11.7l2.3,1.6l-1.6-11.7l-1.6-4.7l-9.4,2.3l-1.6,3.1l-0.8,7.8v4.7l-12.5,5.5
			l-1.6-0.8l-4.7-14.1l3.1-4.7l3.9-3.9l3.1,0.8l-0.8,5.5l-1.6,7.8l0.8,3.1l5.5-7l3.1-7l-6.3-3.1l-3.9-1.6l-0.8-11.7l-1.6-2.3
			l-10.2-2.3l-2.3-3.1l-0.8-4.7V111l14.8-0.8l3.9,3.9l3.1,4.7l-1.6,3.1l-3.1-0.8l-9.4-4.7H775l7,7.8l3.9,4.7l5.5-6.3l1.6-3.1
			l-3.1-7.8l-1.6-2.3l0.8-3.1l7-7.8L797.7,97.7z"/>
		<path d="M868.8,107.1h5.5l12.5,6.3l0.8,3.9l-3.1,5.5l-8.6,9.4l-16.4,0.8H843l-3.1-3.1l-0.8-3.1v-5.5h-1.6l2.3,10.2l2.3,2.3
			l4.7,0.8l27.3,1.6l4.7,3.1l7,8.6v3.9l-4.7,3.9l-10.9,5.5l-5.5-0.8l-15.6-6.3l-10.2-4.7l-1.6-1.6l0.8-6.3v-3.9l-2.3-0.8l-3.9-7
			l2.3-3.9l-0.8-3.9l-3.9-2.3l1.6-8.6l3.9,3.9l2.3,1.6h5.5L868.8,107.1z"/>
		<path d="M746.1,61h6.3l11.7,3.1l5.5,6.3l8.6,16.4l2.3,5.5l-0.8,5.5l-6.3,5.5l5.5-2.3v6.3l-0.8,0.8l-8.6,0.8l-2.3,0.8l0.8-7
			l-11.7-10.9L750,86l-5.5-5.5l-1.6-6.3V64.1L746.1,61z"/>
		<path d="M735.2,82.9h6.3l14.8,10.9l9.4,7.8l0.8,1.6v4.7l-3.9,7l3.1-4.7h1.6l0.8,11.7l-7,3.1l-0.8-5.5l-2.3-3.1l-28.9-10.9
			l-3.9-3.9l-3.9-9.4v-4.7l2.3-2.3L735.2,82.9z"/>
		<path d="M803.9,167.2l3.9,0.8l3.9,2.3v0.8l-7.8,0.8L800,175l-0.8,2.3l-0.8,10.2l-0.8,21.1l-3.1,4.7l-5.5,5.5l-3.9,2.3l-4.7-1.6
			l-3.9-6.3l-3.9-7.8l0.8-6.3l7-18.8l3.1-6.3l3.1-2.3l8.6,0.8l-6.3-1.6l2.3-2.3l3.1-0.8l3.1,3.1l3.9,0.8l1.6-3.1L803.9,167.2z"/>
		<path d="M778.9,46.1l4.7,1.6l10.9,8.6l0.8,1.6l1.6,18V90l-3.9,3.9l-3.1,0.8h5.5l-4.7,6.3l-3.9-0.8l-6.3-1.6l0.8-3.1v-7L775,75.8
			l-4.7-10.9v-5.5l4.7-10.9L778.9,46.1z"/>
		<path d="M725.8,108.6l7,0.8l18.8,6.3l6.3,3.1l1.6,1.6v5.5l-0.8,5.5l1.6-3.1l3.1,3.1l1.6,3.1l-4.7,3.9l-3.1-3.9l-2.3-0.8h-31.3
			l-5.5-3.1l-7-8.6v-4.7l7.8-5.5L725.8,108.6z"/>
		<path d="M768.8,164.1h6.3l5.5,3.1l2.3,3.9l-1.6,3.9l-12.5,28.1l-10.2,4.7l-7,0.8l-2.3-1.6l-2.3-10.9v-7l3.1-4.7l7.8-7.8l7-8.6
			L768.8,164.1z"/>
		<path d="M752.3,135.2l4.7,0.8l1.6,1.6l1.6,6.3l2.3,2.3l7.8,5.5l-1.6,4.7l-2.3-0.8l-3.1-4.7L757,150l-9.4,3.9l-16.4,7.8h-7
			l-10.2-3.9l-2.3-3.1l0.8-3.9l5.5-8.6l4.7-4.7l10.9-1.6L752.3,135.2z"/>
		<path d="M834.4,146.1h1.6l1.6,3.9l12.5,6.3l16.4,7.8l2.3,2.3l3.9,12.5l-0.8,3.9l-1.6,1.6l-12.5,1.6h-4.7l-7.8-7.8l-6.3-5.5
			l-9.4-8.6l-1.6-3.9l3.1-6.3l-2.3,0.8L828,150L834.4,146.1z"/>
		<path d="M822.7,157.9h4.7v5.5l9.4,10.9l11.7,11.7l3.1,2.3v16.4l-2.3,2.3h-5.5l-12.5-3.9l-3.1-3.1l-11.7-27.3l0.8-3.1l1.6-2.3
			l0.8-3.9L822.7,157.9z"/>
		<path d="M757.8,151.6h4.7l4.7,5.5l1.6,1.6l5.5,0.8h3.9l1.6,5.5l-5.5-1.6h-5.5l-7,4.7l-6.3,6.3l-7,8.6l-3.9,3.9h-16.4l-3.1-3.1
			l0.8-6.3l3.1-10.9l6.3-3.9l19.5-9.4L757.8,151.6z"/>
		<path d="M809.4,171.9h4.7l3.1,9.4l7,15.6l1.6,4.7v6.3l-5.5,10.9l-3.1,2.3l-4.7-1.6l-10.2-8.6l-1.6-3.1v-32l3.1-2.3L809.4,171.9z"
			/>
		<path d="M797.7,97.7l3.9,1.6l7,7.8l0.8,2.3l-3.1,9.4l-2.3,0.8l-2.3-1.6l-1.6-10.2l-1.6-4.7l-2.3,6.3l-1.6,10.9l5.5,0.8l6.3,3.1
			l3.9,4.7l0.8,4.7l-1.6,6.3l-3.1,3.9l-3.1,1.6h-7l-5.5-3.1l-2.3-4.7V129l1.6-4.7l3.1-3.1l-1.6-6.3l-3.1-5.5l0.8-3.1l7-7.8
			L797.7,97.7z"/>
		<path d="M797.7,125l4.7,0.8l3.9,3.1l0.8,1.6v7l-3.9,4.7l-1.6,0.8h-5.5l-4.7-2.3l-2.3-3.9v-5.5l3.1-3.9L797.7,125z"/>
		<path d="M771.9,130.5h7l5.5,2.3l-0.8,3.1l-13.3,3.9l-2.3,2.3l17.2,0.8l-1.6,3.1l-5.5,3.9l-4.7,0.8l-6.3-4.7l-4.7-3.9l1.6-3.1
			l5.5-6.3L771.9,130.5z"/>
		<path d="M781.3,101.6h6.3l-1.6,3.1l-0.8,3.1h-5.5L781.3,101.6z"/>
		<path d="M767.2,123.5l2.3,2.3l0.8,3.1l-3.1,3.1h-1.6l-1.6-3.1l0.8-3.1L767.2,123.5z"/>
		<path d="M811.7,102.4l3.9,0.8l1.6,3.9l-5.5,0.8l-3.1-4.7L811.7,102.4z"/>
		<path d="M771.9,153.2h3.9l1.6,3.9l-1.6,0.8l-3.9-1.6V153.2z"/>
	</g>
	<use xlink:href="#azzurri-ritagli" href="#azzurri-ritagli"/>
</mask>
<g class="st1">
	<path class="st2" d="M812.5,42.2l6.3,0.8l4.7,5.5l4.7,9.4v2.3l10.9-5.5l7-1.6l5.5,2.3l1.6,2.3l1.6,9.4V78l1.6-0.8h14.8l4.7,2.3
		l2.3,4.7L875,96.9l-2.3,6.3l7,2.3l7.8,4.7l2.3,2.3l0.8,6.3l-6.3,8.6l-3.1,3.9l-3.1,3.1l5.5,4.7l5.5,7.8l-0.8,7l-4.7,3.9l-10.9,5.5
		h-2.3l4.7,10.9l0.8,7l-2.3,4.7l-6.3,2.3h-12.5v17.2l-3.1,3.9l-1.6,0.8h-6.3l-13.3-3.9l-1.6-0.8l-1.6,7l-4.7,8.6l-4.7,3.1l-5.5-0.8
		l-10.2-8.6l-3.1-2.3l-7,7.8l-4.7,3.1l-5.5,0.8l-4.7-3.1l-7-14.1l-3.1,0.8l-10.2,3.9h-6.3l-3.9-2.3l-1.6-3.9l-1.6-14.8l-16.4-0.8
		l-3.9-3.1l-1.6-3.1l0.8-7l3.9-11.7l-7.8-1.6l-6.3-3.1l-3.1-3.1l-0.8-6.3l6.3-9.4l4.7-4.7v-1.6l-6.3-5.5l-5.5-7v-7l7.8-5.5l8.6-4.7
		L718,93l-0.8-4.7l2.3-3.9l3.1-2.3l12.5-2.3h6.3l-1.6-5.5v-11l2.3-3.9l3.1-1.6h7l12.5,3.1l2.3,1.6l0.8-7l4.7-9.4l3.1-2.3l4.7-0.8
		l6.3,3.1l8.6,7l1.6,3.1h1.6l1.6-3.9l7-7L812.5,42.2z"/>
	<path class="st3" d="M439.8,293.8l3.9,0.8l3.9,3.9l7.8,11.7l9.4,17.2l6.3,14.8l6.3,18.8l3.9,19.5l0.8,11.7l0.8,46.1l0.8,12.5
		l2.3,2.3l4.7,3.1v4.7l-2.3,1.6H482l-3.1-0.8h-8.6l-3.1,0.8h-7l-3.9-2.3l-0.8-3.1l7.8-5.5l0.8-3.1v-18l-0.8-7.8l-9.4-1.6h-31.3
		l-4.7,0.8v10.9l0.8,18l7,5.5v4.7l-2.3,1.6h-6.3l-3.1-0.8h-8.6l-3.1,0.8H396l-3.9-1.6l-1.6-3.1l3.1-3.1l4.7-1.6l1.6-10.9l0.8-40.6
		l0.8-18.8l3.1-18.8l8.6-25.8l10.9-22.7l9.4-14.8L439.8,293.8z"/>
	<path class="st3" d="M1065.6,293.8l4.7,0.8l7.8,10.2l9.4,16.4l7,14.8l7,19.5l4.7,19.5l1.6,16.4l0.8,46.9l0.8,5.5v8.6l3.9,1.6
		l3.9,3.9l-0.8,3.1l-2.3,1.6h-5.5l-3.9-0.8h-8.6l-3.1,0.8h-6.3l-3.9-1.6l-1.6-3.1l3.1-3.1l4.7-3.1l0.8-3.1v-18.8l-0.8-7l-9.4-1.6
		 h-31.3l-4.7,0.8v14l0.8,14.8l3.9,3.1l3.9,3.9l-0.8,3.1l-2.3,1.6h-6.3l-3.1-0.8h-8.6l-3.1,0.8h-7l-3.9-2.3l-0.8-2.3l3.1-3.1l4.7-3.1
		l1.6-8.6l1.6-59.4l3.1-18.8l6.3-20.3l7.8-18l7.8-14.8l9.4-14.1L1065.6,293.8z"/>
	<path class="st3" d="M571.9,294.6l8.6,1.6h5.5l3.1-0.8h7l3.1,1.6v3.9l-3.9,3.1l-3.1,2.3l-0.8,25.8v99.2l1.6,20.3l3.1,3.1l4.7,3.1
		L600,461l-3.9,2.3h-7.8l-3.1-0.8h-7.8l-3.1,0.8h-5.5l-3.1-1.6V457l7-4.7l0.8-25v-18.8l-4.7-15.6l-4.7-12.5l-9.4-19.5l-9.4-16.4
		l-10.9-16.4l-5.5-7l-1.6-0.8l-0.8,2.3l-0.8,28.1v69.5l0.8,21.9l0.8,8.6l0.8,2.3l7,4.7l-0.8,3.9l-3.9,1.6h-7l-3.9-0.8h-7.8l-3.1,0.8
		h-5.5l-3.1-1.6v-3.9l3.9-3.1l3.1-2.3l0.8-17.2V322.7l-0.8-12.5l-1.6-4.7l-6.3-4.7v-3.9l2.3-1.6h6.3l2.3,0.8h5.5l7.8-0.8l3.1,1.6
		l7.8,10.2l14.1,21.1l9.4,15.6l10.9,21.1l4.7,11.7v-50l-1.6-20.3l-7.8-6.3l0.8-3.1L571.9,294.6z"/>
	<path class="st3" d="M1128.9,295.4h42.2l12.5,3.1l7,3.9l5.5,4.7l4.7,7.8l2.3,5.5l1.6,9.4V343l-2.3,9.4l-5.5,10.9l-8.6,10.2l-8.6,7
		l-0.8,1.6l3.9,1.6l8.6,8.6l5.5,9.4l3.1,10.2l0.8,5.5l0.8,30.5l3.1,11.7l4.7,8.6l7,7.8v1.6l-3.9,1.6l-9.4-6.3l-7.8-7l-6.3-9.4
		l-3.1-9.4l-1.6-11.7l-0.8-24.2l-2.3-12.5l-4.7-9.4l-3.1-2.3l-4.7,1.6l-11.7,7l-3.1-1.6l1.6-3.1l9.4-9.4l8.6-11.7l6.3-13.3l3.1-10.9
		l1.6-7l0.8-7v-12.5l-2.3-7l-5.5-6.3l-6.3-2.3h-12.5l-4.7,1.6l-1.6,2.3l-0.8,49.2v67.2l1.6,27.3l0.8,3.1l3.9,1.6l3.1,2.3l-0.8,3.9
		l-3.9,1.6h-7l-3.1-0.8h-7.8l-3.9,0.8h-5.5l-3.1-1.6v-3.9l3.9-3.1l3.1-2.3l0.8-2.3V318.8l-1.6-14.1l-3.9-1.6l-3.9-3.1l1.6-3.9
		L1128.9,295.4z"/>
	<path class="st3" d="M713.3,295.4h70.3l3.1,3.1l0.8,3.1v8.6l-3.1,11.7l-3.1,5.5l-3.1-3.1l-6.3-12.5l-6.3-7l-3.1-1.6h-23.4l-3.9,3.1
		l-0.8,59.4l36.7,0.8l6.3,7.8l-1.6,3.9l-3.1,1.6l-7.8-2.3l-13.3-1.6h-7.8l-10.2,0.8l0.8,40.6l0.8,25.8l0.8,7l3.1,3.9h24.2l6.3-4.7
		l4.7-7.8l6.3-11.7h1.6l3.9,9.4l2.3,7.8v8.6l-2.3,4.7l-2.3,1.6h-71.9l-3.1-1.6v-3.9l3.9-3.1l3.1-1.6l0.8-25V325.8l-0.8-15.6
		l-1.6-4.7l-6.3-3.9l-0.8-3.1l2.3-2.3L713.3,295.4z"/>
	<path class="st3" d="M887.5,295.4h71.1l3.9,3.9l0.8,3.9v5.5l-3.1,11.7l-3.1,6.3h-2.3l-8.6-16.4l-3.9-4.7l-4.7-2.3h-23.4l-3.9,3.9
		l-0.8,59.4h36.7l6.3,7l-0.8,4.7l-3.1,1.6l-12.5-3.1l-16.4-0.8l-9.4,0.8v60.9l0.8,10.2l2.3,5.5l0.8,0.8h24.2l4.7-3.1l4.7-5.5
		l7.8-14.8h2.3l4.7,12.5l0.8,2.3v11.7l-3.1,3.9l-1.6,0.8h-71.1l-3.1-0.8v-5.5l6.3-3.9l0.8-1.6l0.8-62.5v-32.8l-0.8-37.5l-0.8-9.4
		l-0.8-2.3l-7-4.7l0.8-3.9L887.5,295.4z"/>
	<path class="st3" d="M1217.2,295.4h87.5l3.9,3.9l0.8,3.9v5.5l-3.1,11.7l-3.1,7h-1.6L1293,311l-4.7-5.5l-4.7-2.3h-9.4l-3.1,2.3
		l-0.8,12.5v118l0.8,12.5l1.6,4.7l6.3,4.7v3.1l-3.9,2.3h-7.8l-3.1-0.8h-8.6l-2.3,0.8h-5.5l-3.9-2.3l0.8-3.9l6.3-3.9l0.8-1.6
		l0.8-61.7v-29.7l-0.8-44.5l-1.6-10.2l-2.3-2.3h-9.4l-6.3,3.9l-6.3,10.2l-4.7,9.4h-2.3l-3.1-7l-2.3-7.8V300l2.3-3.9L1217.2,295.4z"
		/>
	<path class="st3" d="M610.2,295.4h87.5l3.9,3.9l0.8,3.9v5.5l-3.1,11.7l-3.1,6.3l-1.6,0.8l-9.4-17.2l-3.9-4.7l-4.7-2.3h-9.4
		l-3.1,2.3l-0.8,2.3l-0.8,62.5v28.1l0.8,40.6l0.8,10.2l1.6,3.9l6.3,4.7l-0.8,3.9l-3.9,1.6h-7l-3.1-0.8h-7.8l-3.1,0.8h-5.5l-3.9-2.3
		l0.8-3.9l5.5-3.9h1.6V318l-0.8-10.2l-2.3-3.9l-0.8-0.8h-9.4l-7,4.7l-6.3,10.9l-3.9,7.8H612l-3.1-7l-2.3-7.8v-12.5L610.2,295.4z"/>
	<path class="st3" d="M346.1,292.2h7.8l7.8,3.1l8.6,4.7l7,5.5l4.7,5.5l0.8,4.7l-3.1,11.7l-2.3,4.7l-2.3,1.6l-8.6-12.5l-7-9.4
		l-6.3-6.3l-5.5-3.1l-4.7-0.8l-4.7,2.3l-5.5,6.3l-4.7,10.2v10.2l3.9,9.4l5.5,8.6l8.6,10.2l8.6,9.4l14.1,15.6l10.2,13.3l3.9,8.6v10.9
		l-3.1,11.7l-7,14.8l-9.4,14.8l-10.2,13.3l-7,8.6l-9.4,10.2l-10.9,10.9l-6.3,4.7l-3.1-3.9l0.8-3.1l8.6-9.4l11.7-11.7l5.5-6.3
		l7.8-9.4l7.8-11.7l5.5-11.7l2.3-10.9l-0.8-7l-3.1-8.6l-7-10.9l-14.1-15.6l-6.3-6.3l-5.5-6.3l-8.6-9.4l-7-10.9l-3.1-7.8v-10.2
		l2.3-9.4l6.3-12.5l6.3-7.8l5.5-5.5l7.8-4.7L346.1,292.2z"/>
	<path class="st3" d="M835.2,292.2h7.8l9.4,3.9l9.4,5.5l7.8,7l2.3,3.9l-0.8,7l-3.9,11.7l-3.1,1.6l-5.5-7l-7.8-10.9l-7-7.8l-7-4.7
		l-4.7-0.8l-4.7,2.3l-5.5,6.3L818,318l-0.8,2.3v10.2l3.9,9.4l5.5,8.6l8.6,10.2l8.6,9.4l5.5,6.3l8.6,9.4l8.6,10.9l5.5,10.9v10.9
		l-2.3,9.4l-5.5,12.5l-6.3,10.9l-6.3,9.4l-7,9.4L836,479l-11,11.7l-10.2,10.2l-6.3,4.7l-3.1-3.9l1.6-3.9l7-7.8l13.3-13.3l5.5-6.3
		l9.4-11.7l6.3-10.2l4.7-10.2l1.6-6.3v-11.7l-3.1-8.6l-7-10.9l-7-7.8l-5.5-6.3l-6.3-6.3l-5.5-6.3l-6.3-6.3l-7.8-10.2l-5.5-10.9
		l-0.8-3.1v-9.4l2.3-9.4l6.3-12.5l6.3-7.8l5.5-5.5l7.8-4.7L835.2,292.2z"/>
</g>
<g>
	<path class="st4" d="M791,25.8h10.9l14.8,1.6l14.8,3.9l11.7,4.7l8.6,4.7l13.3,9.4l10.2,9.4l7.8,8.6l8.6,13.3l5.5,12.5l4.7,14.8
		l1.6,7l0.8,7v23.4l-1.6,10.9l-4.7,15.6l-8.6,18l-5.5,7l-8.6,10.2l-7,7.8l-10.9,7.8l-18,10.2l-11.7,3.9l-16.4,3.1l-11.7,1.6
		l-10.9-0.8l-20.3-3.1l-10.9-3.9l-14.8-7l-11.7-7.8l-9.4-8.6l-7.8-7.8l-7.8-10.9l-7-12.5l-5.5-14.8l-2.5-11v-5.5h0.8l3.9,16.4
		l5.5,14.1l7,12.5l7.8,10.2l8.6,9.4l11.7,9.4l12.5,7l11.7,5.5l11.7,3.1l15.6,2.3h18l21.9-3.9l10.2-3.9l13.3-7l8.6-5.5l7.8-6.3
		l5.5-6.3l9.4-10.9l6.3-10.9l5.5-11.7l4.7-14.8l1.6-7.8v-29.7l-3.9-16.4l-5.7-15l-6.3-11.7l-7-9.4l-7-7.8l-8.6-7l-8.6-6.3l-12.5-7
		l-11-4.7l-17.2-3.9l-7-0.8h-19.5L772.2,32l-16.4,5.5l-12.5,6.3l-8.6,5.5l-8.6,7l-7.8,7l-10.9,14.8l-6.3,10.2l-6.3,18.8l-3.1,15.6
		L691,129h-0.8v-9.4l3.1-17.2l3.1-9.4l6.3-12.5l7.8-11.7l7-8.6l7-7l10.2-7.8l10.2-6.3l13.3-6.3l15.6-4.7L791,25.8z"/>
	<path class="st4" d="M783.3,34.4h28.9l20.3,5.5l10.9,4.7l11.7,7.8l7.8,6.3l7.8,7l7.8,10.2l7.8,12.5l5.5,14.8l3.9,14.8v28.1
		l-2.3,11.7l-4.7,14.1l-7,13.3l-5.5,7v-2.3l7-11.7l4.7-10.9l3.9-13.3l1.6-9.4l0.8-16.4l-3.1-18l-4.7-14.1l-6.3-12.5l-7-10.2
		l-8.6-9.4l-7-6.3l-11-7.7l-13.3-6.3L817.6,39l-7-1.6h-23.4L775.5,39l-13.3,4.7L748.1,50l-9.4,7l-8.6,7.8l-5.5,4.7l-7.8,10.9
		L709,94.6l-3.9,10.2l-3.9,19.5v14.8l2.3,16.4l3.9,13.3l6.3,12.5l7.8,11.7l9.4,10.2l7,6.3l11.7,7.8l11.7,5.5l11.7,3.9l12.5,2.3H809
		l13.3-2.3l11.7-3.9l16.4-8.6l7-4.7l1.6,0.8l-10.9,7.8l-14.8,7.8l-12.5,3.9l-13.3,2.3H784l-14.8-3.1l-14.8-5.5l-12.5-7l-9.4-7
		l-10.9-10.9l-7.8-10.2l-7-12.5l-3.9-8.6l-3.9-14.8l-1.6-14.1V125l1.6-11.7l4.7-16.4l6.3-12.5l7.8-12.5l7-7.8l8.6-7l6.3-5.5l8.6-5.5
		l16.4-7l13.3-3.9L783.3,34.4z"/>
</g>
<defs>
	<filter id="Adobe_OpacityMaskFilter_1_" filterUnits="userSpaceOnUse" x="818.9" y="157.9" width="8.5" height="9.3">
		<feColorMatrix  type="matrix" values="1 0 0 0 0  0 1 0 0 0  0 0 1 0 0  0 0 0 1 0"/>
	</filter>
</defs>
<mask maskUnits="userSpaceOnUse" x="818.9" y="157.9" width="8.5" height="9.3" id="ritaglio-bianco_2_">
	<rect class="st5" width="1600" height="529"/>
	<g>
		<path d="M440.6,308.6l3.1,1.6l4.7,9.4l6.3,19.5l6.3,25l3.1,18v30.5H418v-25.8l3.1-19.5l4.7-20.3l7-22.7l4.7-11.7L440.6,308.6z"/>
		<path d="M1066.4,308.6l3.1,1.6l4.7,9.4l6.3,19.5l6.3,25l3.1,18v30.5h-46.1v-25l3.1-20.3l4.7-19.5l7-23.4l4.7-11.7L1066.4,308.6z"
			/>
		<path d="M813.3,45.4l4.7,0.8l6.3,10.2l1.6,3.1V65l-7,20.3l-3.9,7.8l-0.8,0.8h-7.8h-1.6l2.3,0.8h8.6l5.5-10.9L829,65l3.9-3.9
			l8.6-3.9l5.5-0.8l3.1,3.1l2.3,15.6l-3.9,6.3l-8.6,10.2l-5.5,6.3l-3.1,3.1l-3.9,0.8l-6.3-3.1v0.8l5.5,3.1l3.9,0.8l9.4-8.6
			l11.7-10.9l4.7-3.1h12.5l4.7,1.6L875,86l-4.7,15.6L868,104l-20.3,9.4l-6.3,2.3h-3.9l-6.3-7l-12.5-1.6l-2.3-7l-3.1-0.8l-4.7,2.3
			l-3.1-1.6l-5.5-5.5l-3.1-1.6l0.8-2.3h2.3V74.3l0.8-17.2l4.7-6.3l6.3-4.7L813.3,45.4z"/>
		<path d="M797.7,97.7l3.9,1.6l7,7.8l0.8,2.3l-3.1,9.4l-2.3,0.8l-2.3-1.6l-1.6-10.2l-1.6-4.7l-2.3,6.3l-1.6,10.9h8.6l3.9,0.8
			l1.6-4.7l3.9-6.3h9.4l6.3,0.8v6.3l-2.3,9.4l-10.2,3.9l-2.3-0.8l0.8-3.9l7-7l3.1-4.7l-14.1,6.3l-1.6,3.1l3.9,7l5.5,0.8l7-1.6
			l3.9,0.8l6.3,9.4l-0.8,3.1l-10.9,6.3l-4.7-0.8l-7-4.7l1.6-3.1l16.4-0.8l-11.7-5.5l-4.7-1.6l-1.6,7.8l-0.8,2.3l5.5,6.3l3.1,3.1
			l-0.8,7l-4.7,8.6l-12.5-6.3l-1.6-5.5v-7l3.1-0.8l7,11.7l2.3,1.6l-1.6-11.7l-1.6-4.7l-9.4,2.3l-1.6,3.1l-0.8,7.8v4.7l-12.5,5.5
			l-1.6-0.8l-4.7-14.1l3.1-4.7l3.9-3.9l3.1,0.8l-0.8,5.5l-1.6,7.8l0.8,3.1l5.5-7l3.1-7l-6.3-3.1l-3.9-1.6l-0.8-11.7l-1.6-2.3
			l-10.2-2.3l-2.3-3.1l-0.8-4.7V111l14.8-0.8l3.9,3.9l3.1,4.7l-1.6,3.1l-3.1-0.8l-9.4-4.7H775l7,7.8l3.9,4.7l5.5-6.3l1.6-3.1
			l-3.1-7.8l-1.6-2.3l0.8-3.1l7-7.8L797.7,97.7z"/>
		<path d="M868.8,107.1h5.5l12.5,6.3l0.8,3.9l-3.1,5.5l-8.6,9.4l-16.4,0.8H843l-3.1-3.1l-0.8-3.1v-5.5h-1.6l2.3,10.2l2.3,2.3
			l4.7,0.8l27.3,1.6l4.7,3.1l7,8.6v3.9l-4.7,3.9l-10.9,5.5l-5.5-0.8l-15.6-6.3l-10.2-4.7l-1.6-1.6l0.8-6.3v-3.9l-2.3-0.8l-3.9-7
			l2.3-3.9l-0.8-3.9l-3.9-2.3l1.6-8.6l3.9,3.9l2.3,1.6h5.5L868.8,107.1z"/>
		<path d="M746.1,61h6.3l11.7,3.1l5.5,6.3l8.6,16.4l2.3,5.5l-0.8,5.5l-6.3,5.5l5.5-2.3v6.3l-0.8,0.8l-8.6,0.8l-2.3,0.8l0.8-7
			l-11.7-10.9L750,86l-5.5-5.5l-1.6-6.3V64.1L746.1,61z"/>
		<path d="M735.2,82.9h6.3l14.8,10.9l9.4,7.8l0.8,1.6v4.7l-3.9,7l3.1-4.7h1.6l0.8,11.7l-7,3.1l-0.8-5.5l-2.3-3.1l-28.9-10.9
			l-3.9-3.9l-3.9-9.4v-4.7l2.3-2.3L735.2,82.9z"/>
		<path d="M803.9,167.2l3.9,0.8l3.9,2.3v0.8l-7.8,0.8L800,175l-0.8,2.3l-0.8,10.2l-0.8,21.1l-3.1,4.7l-5.5,5.5l-3.9,2.3l-4.7-1.6
			l-3.9-6.3l-3.9-7.8l0.8-6.3l7-18.8l3.1-6.3l3.1-2.3l8.6,0.8l-6.3-1.6l2.3-2.3l3.1-0.8l3.1,3.1l3.9,0.8l1.6-3.1L803.9,167.2z"/>
		<path d="M778.9,46.1l4.7,1.6l10.9,8.6l0.8,1.6l1.6,18V90l-3.9,3.9l-3.1,0.8h5.5l-4.7,6.3l-3.9-0.8l-6.3-1.6l0.8-3.1v-7L775,75.8
			l-4.7-10.9v-5.5l4.7-10.9L778.9,46.1z"/>
		<path d="M725.8,108.6l7,0.8l18.8,6.3l6.3,3.1l1.6,1.6v5.5l-0.8,5.5l1.6-3.1l3.1,3.1l1.6,3.1l-4.7,3.9l-3.1-3.9l-2.3-0.8h-31.3
			l-5.5-3.1l-7-8.6v-4.7l7.8-5.5L725.8,108.6z"/>
		<path d="M768.8,164.1h6.3l5.5,3.1l2.3,3.9l-1.6,3.9l-12.5,28.1l-10.2,4.7l-7,0.8l-2.3-1.6l-2.3-10.9v-7l3.1-4.7l7.8-7.8l7-8.6
			L768.8,164.1z"/>
		<path d="M752.3,135.2l4.7,0.8l1.6,1.6l1.6,6.3l2.3,2.3l7.8,5.5l-1.6,4.7l-2.3-0.8l-3.1-4.7L757,150l-9.4,3.9l-16.4,7.8h-7
			l-10.2-3.9l-2.3-3.1l0.8-3.9l5.5-8.6l4.7-4.7l10.9-1.6L752.3,135.2z"/>
		<path d="M834.4,146.1h1.6l1.6,3.9l12.5,6.3l16.4,7.8l2.3,2.3l3.9,12.5l-0.8,3.9l-1.6,1.6l-12.5,1.6h-4.7l-7.8-7.8l-6.3-5.5
			l-9.4-8.6l-1.6-3.9l3.1-6.3l-2.3,0.8L828,150L834.4,146.1z"/>
		<path d="M822.7,157.9h4.7v5.5l9.4,10.9l11.7,11.7l3.1,2.3v16.4l-2.3,2.3h-5.5l-12.5-3.9l-3.1-3.1l-11.7-27.3l0.8-3.1l1.6-2.3
			l0.8-3.9L822.7,157.9z"/>
		<path d="M757.8,151.6h4.7l4.7,5.5l1.6,1.6l5.5,0.8h3.9l1.6,5.5l-5.5-1.6h-5.5l-7,4.7l-6.3,6.3l-7,8.6l-3.9,3.9h-16.4l-3.1-3.1
			l0.8-6.3l3.1-10.9l6.3-3.9l19.5-9.4L757.8,151.6z"/>
		<path d="M809.4,171.9h4.7l3.1,9.4l7,15.6l1.6,4.7v6.3l-5.5,10.9l-3.1,2.3l-4.7-1.6l-10.2-8.6l-1.6-3.1v-32l3.1-2.3L809.4,171.9z"
			/>
		<path d="M797.7,97.7l3.9,1.6l7,7.8l0.8,2.3l-3.1,9.4l-2.3,0.8l-2.3-1.6l-1.6-10.2l-1.6-4.7l-2.3,6.3l-1.6,10.9l5.5,0.8l6.3,3.1
			l3.9,4.7l0.8,4.7l-1.6,6.3l-3.1,3.9l-3.1,1.6h-7l-5.5-3.1l-2.3-4.7V129l1.6-4.7l3.1-3.1l-1.6-6.3l-3.1-5.5l0.8-3.1l7-7.8
			L797.7,97.7z"/>
		<path d="M797.7,125l4.7,0.8l3.9,3.1l0.8,1.6v7l-3.9,4.7l-1.6,0.8h-5.5l-4.7-2.3l-2.3-3.9v-5.5l3.1-3.9L797.7,125z"/>
		<path d="M771.9,130.5h7l5.5,2.3l-0.8,3.1l-13.3,3.9l-2.3,2.3l17.2,0.8l-1.6,3.1l-5.5,3.9l-4.7,0.8l-6.3-4.7l-4.7-3.9l1.6-3.1
			l5.5-6.3L771.9,130.5z"/>
		<path d="M781.3,101.6h6.3l-1.6,3.1l-0.8,3.1h-5.5L781.3,101.6z"/>
		<path d="M767.2,123.5l2.3,2.3l0.8,3.1l-3.1,3.1h-1.6l-1.6-3.1l0.8-3.1L767.2,123.5z"/>
		<path d="M811.7,102.4l3.9,0.8l1.6,3.9l-5.5,0.8l-3.1-4.7L811.7,102.4z"/>
		<path d="M771.9,153.2h3.9l1.6,3.9l-1.6,0.8l-3.9-1.6V153.2z"/>
	</g>
	<use xlink:href="#azzurri-ritagli" href="#azzurri-ritagli"/>
</mask>
<g class="st6">
	<path class="st7" d="M822.7,157.9h4.7v4.7l-2.3,2.3l-3.9,2.3h-2.3l0.8-3.9L822.7,157.9z"/>
</g>
<g id="rosa-pieghe" class="st-mask-rosa">
	<path class="st3" d="M798.4,121.9l7,1.6l4.7,5.5l0.8,4.7l-1.6,6.3l-3.1,3.9l-3.1,1.6h-7l-5.5-3.1l-2.3-4.7V129l2.3-3.9L798.4,121.9
		z M797.7,125l-5.5,2.3l-3.1,3.9v5.5l3.1,4.7l3.9,1.6h5.5l4.7-3.9l0.8-1.6v-7l-3.1-3.9l-4-1.6H797.7z"/>
	<path class="st8" d="M773.4,114.9l7,1.6l7,3.9l3.1,0.8l3.1-1.6l-1.6,3.1l-6.3,7l-3.1-3.9l-7-7L773.4,114.9z"/>
	<path class="st8" d="M813.3,132.9l7,1.6l10.2,5.5v0.8l-17.2,0.8l-2.3,0.8L813.3,132.9z"/>
	<path class="st3" d="M841.4,140.7l7.8,0.8l22.7,4.7l2.3,0.8v1.6l-4.7,0.8l-15.6-3.1l-12.5-3.9V140.7z"/>
	<path class="st3" d="M808.6,175.8h1.6l4.7,22.7l0.8,4.7v6.3l-2.3-2.3l-3.1-11.7l-1.6-11.7v-8H808.6z"/>
	<path class="st3" d="M774.2,170.4l1.6,0.8l-6.3,10.9l-10.9,16.4H757l0.8-4.7l7-11.7l8.6-10.9L774.2,170.4z"/>
	<path class="st3" d="M760.9,158.6h1.6v1.6l-13.3,10.2l-10.2,7l-3.9,0.8l4.7-5.5l12.5-9.4L760.9,158.6z"/>
	<path class="st3" d="M751.6,143h4.7l-0.8,1.6l-21.9,6.3l-7,1.6h-3.1v-1.6l9.4-3.9l13.3-3.1L751.6,143z"/>
	<path class="st3" d="M823.4,169.6l3.9,3.1l9.4,12.5l6.3,8.6l0.8,3.1l-3.1-1.6l-5.5-5.5l-8.6-12.5l-3.1-6.3v-1.4H823.4z"/>
	<path class="st3" d="M839.8,67.2h2.3l-1.6,4.7L835,82.1l-9.4,12.5l-1.6,0.8l0.8-3.9l7.8-13.3L839.8,67.2z"/>
	<path class="st3" d="M724.2,120.4l11.7,0.8l13.3,3.1l5.5,1.6v1.6h-6.3l-25-4.7l-1.6-1.6L724.2,120.4z"/>
	<path class="st3" d="M812.5,57.1l1.6,2.3l-0.8,10.2l-3.1,14.1l-2.3,6.3H807v-7l3.9-21.9L812.5,57.1z"/>
	<path class="st3" d="M871.1,117.2h4.7l-2.3,2.3l-10.9,3.1l-13.3,2.3H843l0.8-1.6l14.8-3.9L871.1,117.2z"/>
	<path class="st3" d="M834.4,156.3l8.6,4.7l11.7,7.8l7.8,5.5v1.6l-4.7-0.8l-11.7-7.8l-11.7-9.4L834.4,156.3L834.4,156.3z"/>
	<path class="st3" d="M731.3,93l5.5,0.8l11.7,6.3l11.7,7.8l-0.8,1.6l-14.8-7l-11.7-7L731.3,93z"/>
	<path class="st3" d="M791.4,176.6h0.8v6.3l-4.7,23.4l-1.6,3.1h-0.8v-10.2l3.9-16.4L791.4,176.6z"/>
	<path class="st3" d="M751.6,71.1l3.9,1.6l7.8,7.8l7.8,10.9l2.3,3.9l-0.8,1.6l-6.3-6.3l-7-8.6l-7.8-10.2L751.6,71.1L751.6,71.1z"/>
	<path class="st3" d="M779.7,57.9l2.3,0.8l3.1,7.8L789,86v4.7l-1.6-0.8l-6.3-24.2L779.7,57.9z"/>
	<path class="st3" d="M863.3,89.1v2.3l-6.3,5.5l-10.9,7l-7.8,3.9l-1.6-0.8l10.2-7.8l11.7-7.8L863.3,89.1z"/>
</g>
</g>
</svg>